<svg width="116" height="116" viewBox="0 0 116 116" fill="none" xmlns="http://www.w3.org/2000/svg">
    <path fill-rule="evenodd" clip-rule="evenodd" d="M58 107.907C85.5629 107.907 107.907 85.5629 107.907 58C107.907 30.4371 85.5629 8.09302 58 8.09302C30.4371 8.09302 8.09302 30.4371 8.09302 58C8.09302 85.5629 30.4371 107.907 58 107.907ZM58 116C90.0325 116 116 90.0325 116 58C116 25.9675 90.0325 0 58 0C25.9675 0 0 25.9675 0 58C0 90.0325 25.9675 116 58 116Z" fill="#482A2A"/>
    <path fill-rule="evenodd" clip-rule="evenodd" d="M71.4763 42.6052C78.2475 38.3401 88.0288 36.5205 95.9086 37.4586L99.4768 37.8834V41.4768C99.4768 50.9909 95.9189 62.2225 90.2064 68.6881C87.3221 71.9528 83.2995 74.6194 78.4464 74.146C73.6341 73.6766 69.5076 70.2572 66.0638 64.9128C63.2238 60.5055 62.4014 56.0148 63.732 51.8229C65.0119 47.7908 68.0593 44.7575 71.4763 42.6052ZM71.4457 54.2715C70.9968 55.6858 71.0349 57.6863 72.8667 60.5291C75.7245 64.9639 77.9944 65.9705 79.2321 66.0912C80.429 66.208 82.11 65.6289 84.1415 63.3296C87.6146 59.3986 90.3795 52.2632 91.1615 45.314C85.7318 45.4071 79.8281 46.9092 75.7896 49.453C73.3177 51.01 71.9454 52.6975 71.4457 54.2715Z" fill="#482A2A"/>
    <path fill-rule="evenodd" clip-rule="evenodd" d="M21.0304 66.7521C16.3545 60.2577 13.9333 50.6077 14.382 42.6849L14.5852 39.0973L18.1717 38.875C27.6676 38.2864 39.0978 41.1425 45.9045 46.444C49.3413 49.1208 52.2517 52.9707 52.0795 57.8438C51.9087 62.6759 48.7512 67.006 43.6301 70.774C39.407 73.8812 34.9758 74.9799 30.7096 73.9112C26.6061 72.8832 23.3899 70.0293 21.0304 66.7521ZM32.6763 66.0607C34.1156 66.4213 36.1099 66.2595 38.8339 64.2553C43.0834 61.1286 43.9476 58.8007 43.9915 57.558C44.034 56.3562 43.3521 54.7142 40.9315 52.8289C36.7931 49.6056 29.5003 47.2875 22.516 46.937C22.945 52.3505 24.8094 58.1499 27.5982 62.0233C29.3052 64.3942 31.0744 65.6594 32.6763 66.0607Z" fill="#482A2A"/>
    <path fill-rule="evenodd" clip-rule="evenodd" d="M62.0465 77.0177L96.429 46.5275L91.0594 40.4724L62.0465 66.2008V19.8953H53.9535V67.0329L22.346 42.9776L17.4447 49.4177L53.9535 77.2032V112.628H62.0465V77.0177Z" fill="#482A2A"/>
    <path fill-rule="evenodd" clip-rule="evenodd" d="M58 39.7907C62.8421 39.7907 66.7675 35.8654 66.7675 31.0233C66.7675 26.1811 62.8421 22.2558 58 22.2558C53.1579 22.2558 49.2326 26.1811 49.2326 31.0233C49.2326 35.8654 53.1579 39.7907 58 39.7907ZM58 47.2093C66.9393 47.2093 74.1861 39.9626 74.1861 31.0233C74.1861 22.0839 66.9393 14.8372 58 14.8372C49.0607 14.8372 41.814 22.0839 41.814 31.0233C41.814 39.9626 49.0607 47.2093 58 47.2093Z" fill="#482A2A"/>
</svg>
