<svg width="20" height="24" viewBox="0 0 20 24" fill="none" xmlns="http://www.w3.org/2000/svg">
    <g clip-path="url(#clip0_86_32)">
        <path d="M13.5714 6C13.5714 5.00544 13.1952 4.05161 12.5254 3.34835C11.8556 2.64509 10.9472 2.25 10 2.25C9.0528 2.25 8.14439 2.64509 7.47462 3.34835C6.80485 4.05161 6.42857 5.00544 6.42857 6C6.42857 6.99456 6.80485 7.94839 7.47462 8.65165C8.14439 9.35491 9.0528 9.75 10 9.75C10.9472 9.75 11.8556 9.35491 12.5254 8.65165C13.1952 7.94839 13.5714 6.99456 13.5714 6ZM4.28571 6C4.28571 4.4087 4.88775 2.88258 5.95939 1.75736C7.03103 0.632141 8.48448 0 10 0C11.5155 0 12.969 0.632141 14.0406 1.75736C15.1122 2.88258 15.7143 4.4087 15.7143 6C15.7143 7.5913 15.1122 9.11742 14.0406 10.2426C12.969 11.3679 11.5155 12 10 12C8.48448 12 7.03103 11.3679 5.95939 10.2426C4.88775 9.11742 4.28571 7.5913 4.28571 6ZM2.20089 21.75H17.8036C17.4062 18.7828 14.9777 16.5 12.0446 16.5H7.96429C5.03125 16.5 2.60268 18.7828 2.20536 21.75H2.20089ZM0 22.6078C0 17.9906 3.5625 14.25 7.95982 14.25H12.0402C16.4375 14.25 20 17.9906 20 22.6078C20 23.3766 19.4062 24 18.6741 24H1.32589C0.59375 24 0 23.3766 0 22.6078Z" fill="#F8F8E5"/>
    </g>
    <defs>
        <clipPath id="clip0_86_32">
            <rect width="20" height="24" fill="white"/>
        </clipPath>
    </defs>
</svg>
